Coordinates
version=1
nRows=26
nColumns=27
inDegrees=yes

Units are S.I. units (second, meters, Newtons, ...)
If the header above contains a line with 'inDegrees', this indicates whether rotational values are in degrees (yes) or radians (no).

endheader
time	pelvis_rotation	pelvis_tilt	pelvis_list	pelvis_tx	pelvis_ty	pelvis_tz	hip_flexion_r	hip_adduction_r	hip_rotation_r	knee_angle_r	knee_rotation_r	knee_adduction_r	knee_angle_r_beta	ankle_angle_r	subtalar_angle_r	mtp_angle_r	hip_flexion_l	hip_adduction_l	hip_rotation_l	knee_angle_l	knee_rotation_l	knee_adduction_l	knee_angle_l_beta	ankle_angle_l	subtalar_angle_l	mtp_angle_l
     11.15000000	      6.49723154	    -38.84963127	      9.53349681	     -0.07293747	      0.88038412	     -1.19770712	     70.33673517	    -17.52473839	    -13.18483148	     37.14044449	      0.00000000	      8.89493969	      0.64822304	      3.32415694	      0.00000000	      0.00000000	     64.06646993	     -1.58282786	    -17.23774534	     26.05005589	      0.00000000	     -7.79166604	      0.45465925	     -1.86092282	      0.00000000	      0.00000000
     11.15500000	      6.63982265	    -39.35762077	      9.41598080	     -0.07421489	      0.87977389	     -1.19746024	     70.99150024	    -17.46598259	    -13.29398091	     37.32203255	      0.00000000	      8.86840057	      0.65139235	      3.31219379	      0.00000000	      0.00000000	     64.91744369	     -1.72890887	    -16.98339381	     26.45311529	      0.00000000	     -7.76612084	      0.46169396	     -1.79135999	      0.00000000	      0.00000000
     11.16000000	      6.93960487	    -39.23154223	      9.58912881	     -0.07443552	      0.87951047	     -1.19768757	     70.95933649	    -17.76944663	    -13.44253853	     37.47822756	      0.00000000	      8.91051953	      0.65411847	      3.37945962	      0.00000000	      0.00000000	     64.84497156	     -1.47782761	    -16.84157621	     26.39332796	      0.00000000	     -7.77812403	      0.46065047	     -1.85589140	      0.00000000	      0.00000000
     11.16500000	      7.19240505	    -39.69400946	      9.37995600	     -0.07589441	      0.87886739	     -1.19736644	     71.48182647	    -17.59195039	    -13.23517307	     37.55142375	      0.00000000	      8.23500607	      0.65539598	      3.35327697	      0.00000000	      0.00000000	     65.70430643	     -1.55271873	    -16.09258293	     26.77910982	      0.00000000	     -7.31135126	      0.46738364	     -1.83100183	      0.00000000	      0.00000000
     11.17000000	      6.85931518	    -39.74675912	      9.34796063	     -0.07622836	      0.87859705	     -1.19725390	     71.66758321	    -17.49247677	    -13.33130362	     37.64858663	      0.00000000	      8.81752402	      0.65709180	      3.33828329	      0.00000000	      0.00000000	     65.77897343	     -1.82821875	    -16.74535422	     26.94343144	      0.00000000	     -7.83439982	      0.47025159	     -1.76617170	      0.00000000	      0.00000000
     11.17500000	      7.12582497	    -39.93567231	      9.34265625	     -0.07685160	      0.87812036	     -1.19726236	     71.95002680	    -17.67076503	    -13.66710792	     37.84684594	      0.00000000	      8.89015935	      0.66055207	      3.40589538	      0.00000000	      0.00000000	     66.21428964	     -1.78697303	    -16.55822769	     27.19856632	      0.00000000	     -7.86458847	      0.47470453	     -1.71775023	      0.00000000	      0.00000000
     11.18000000	      6.96615533	    -40.07918858	      9.19509456	     -0.07779192	      0.87774663	     -1.19707264	     72.18187130	    -17.34836495	    -13.09772728	     37.83898802	      0.00000000	      8.25678551	      0.66041493	      3.31598971	      0.00000000	      0.00000000	     66.48922897	     -1.94375521	    -16.34600583	     27.33969590	      0.00000000	     -7.48088956	      0.47716771	     -1.74998442	      0.00000000	      0.00000000
     11.18500000	      7.17127902	    -39.75189426	      9.49259053	     -0.07738925	      0.87767714	     -1.19746269	     71.92385326	    -17.81060493	    -13.54284863	     37.97941823	      0.00000000	      8.92253455	      0.66286590	      3.44948201	      0.00000000	      0.00000000	     66.07936835	     -1.67894295	    -16.73584441	     27.19273812	      0.00000000	     -8.00422456	      0.47460281	     -1.73258509	      0.00000000	      0.00000000
     11.19000000	      6.82330358	    -39.81128694	      9.38768495	     -0.07792948	      0.87740405	     -1.19727110	     72.08146098	    -17.53953795	    -13.25324815	     37.99622289	      0.00000000	      8.89116221	      0.66315919	      3.41745127	      0.00000000	      0.00000000	     66.18824985	     -1.96329563	    -17.12775657	     27.36007828	      0.00000000	     -8.15262667	      0.47752345	     -1.69054201	      0.00000000	      0.00000000
     11.19500000	      6.94701591	    -40.24475214	      9.11915246	     -0.07935608	      0.87694369	     -1.19704924	     72.53842036	    -17.28632432	    -13.04278604	     37.98879397	      0.00000000	      8.25502223	      0.66302953	      3.29369660	      0.00000000	      0.00000000	     66.93599669	     -2.05579257	    -16.31978312	     27.60749751	      0.00000000	     -7.54296633	      0.48184173	     -1.79049990	      0.00000000	      0.00000000
     11.20000000	      7.04866136	    -40.43733793	      9.10763949	     -0.07969897	      0.87668744	     -1.19710321	     72.76777728	    -17.44970426	    -13.58721063	     38.08888923	      0.00000000	      8.85537611	      0.66477653	      3.37493098	      0.00000000	      0.00000000	     67.28202466	     -2.11636128	    -16.52468138	     27.82844609	      0.00000000	     -8.07272933	      0.48569801	     -1.66479888	      0.00000000	      0.00000000
     11.20500000	      6.71711452	    -40.58605173	      8.70115140	     -0.08063853	      0.87648324	     -1.19672170	     72.86319342	    -16.92533517	    -13.17914033	     37.93213621	      0.00000000	      8.21972093	      0.66204067	      3.20211660	      0.00000000	      0.00000000	     67.56306598	     -2.47001225	    -16.23425379	     27.99120625	      0.00000000	     -7.62575953	      0.48853871	     -1.73868283	      0.00000000	      0.00000000
     11.21000000	      6.69040730	    -40.06843630	      9.06427378	     -0.07990462	      0.87667843	     -1.19727700	     72.41240176	    -17.32711486	    -13.45422282	     37.99497976	      0.00000000	      8.89482703	      0.66313750	      3.31303496	      0.00000000	      0.00000000	     66.77875075	     -2.24227782	    -17.00401413	     27.67963775	      0.00000000	     -8.25272790	      0.48310081	     -1.71951622	      0.00000000	      0.00000000
     11.21500000	      6.48750024	    -40.17085213	      8.93770802	     -0.08049143	      0.87661070	     -1.19722256	     72.51969177	    -17.13363064	    -13.37031604	     37.91696262	      0.00000000	      8.88381400	      0.66177584	      3.23810767	      0.00000000	      0.00000000	     66.92262458	     -2.42350609	    -17.12850318	     27.74511345	      0.00000000	     -8.29156384	      0.48424358	     -1.73539077	      0.00000000	      0.00000000
     11.22000000	      6.42422784	    -40.25349714	      8.69918399	     -0.08094379	      0.87665064	     -1.19715225	     72.48768782	    -16.99771069	    -13.60260512	     37.77248325	      0.00000000	      8.88852998	      0.65925420	      3.14322554	      0.00000000	      0.00000000	     67.07315963	     -2.56785511	    -16.97720525	     27.78791701	      0.00000000	     -8.29953367	      0.48499064	     -1.76192725	      0.00000000	      0.00000000
     11.22500000	      6.32843990	    -40.31561000	      8.89082770	     -0.08156277	      0.87660188	     -1.19750916	     72.69431689	    -17.03260971	    -13.34259007	     37.78184422	      0.00000000	      8.89481934	      0.65941758	      3.07587730	      0.00000000	      0.00000000	     67.08013951	     -2.49024020	    -17.22101651	     27.66677177	      0.00000000	     -8.28100514	      0.48287626	     -1.80020420	      0.00000000	      0.00000000
     11.23000000	      6.73152009	    -40.97421046	      9.02141328	     -0.08303691	      0.87623233	     -1.19780762	     73.50961655	    -17.23396087	    -13.51357827	     37.91050391	      0.00000000	      8.90066743	      0.66166311	      3.05975873	      0.00000000	      0.00000000	     68.01439685	     -2.29153063	    -16.71377144	     27.80565097	      0.00000000	     -8.04066692	      0.48530016	     -1.90363231	      0.00000000	      0.00000000
     11.23500000	      6.52526595	    -40.47574737	      8.45647679	     -0.08237541	      0.87691806	     -1.19762355	     72.50427390	    -16.98701562	    -14.15753942	     37.42140690	      0.00000000	      8.94860212	      0.65312676	      2.93488895	      0.00000000	      0.00000000	     67.35894245	     -2.54620703	    -16.55838782	     27.58864963	      0.00000000	     -8.18477298	      0.48151277	     -1.97165238	      0.00000000	      0.00000000
     11.24000000	      6.14323042	    -40.63817974	      8.67443662	     -0.08321205	      0.87693201	     -1.19791749	     72.88351066	    -16.82195303	    -13.53354375	     37.38096591	      0.00000000	      8.92002052	      0.65242093	      2.82002041	      0.00000000	      0.00000000	     67.40522251	     -2.63985920	    -17.20525501	     27.47648251	      0.00000000	     -8.22720793	      0.47955509	     -2.02771534	      0.00000000	      0.00000000
     11.24500000	      6.68310908	    -40.78110081	      8.68696356	     -0.08372653	      0.87711837	     -1.19832672	     72.87442562	    -17.16469195	    -14.16444970	     37.26644890	      0.00000000	      8.97907544	      0.65042223	      2.78648505	      0.00000000	      0.00000000	     67.62624440	     -2.29521650	    -16.50077511	     27.28519897	      0.00000000	     -8.03490774	      0.47621656	     -2.19666398	      0.00000000	      0.00000000
     11.25000000	      6.32896496	    -41.61006860	      8.65758306	     -0.08598236	      0.87679375	     -1.19836508	     73.98831172	    -16.66809072	    -13.21094528	     37.21714018	      0.00000000	      8.30644320	      0.64956163	      2.45321177	      0.00000000	      0.00000000	     68.62618493	     -2.54633457	    -16.40922238	     27.43755681	      0.00000000	     -7.38867097	      0.47887571	     -2.31828532	      0.00000000	      0.00000000
     11.25500000	      6.79525712	    -41.48627304	      8.94822913	     -0.08569217	      0.87714183	     -1.19900405	     73.79005161	    -17.26766366	    -14.05899000	     37.21895658	      0.00000000	      8.99125127	      0.64959334	      2.57313656	      0.00000000	      0.00000000	     68.39406225	     -2.14834415	    -16.54187662	     27.13587249	      0.00000000	     -7.85075566	      0.47361032	     -2.37639913	      0.00000000	      0.00000000
     11.26000000	      6.06473735	    -41.09842402	      8.49858651	     -0.08537559	      0.87785357	     -1.19880291	     73.07468923	    -16.69945788	    -13.95192246	     36.68086722	      0.00000000	      8.97519406	      0.64020191	      2.35312094	      0.00000000	      0.00000000	     67.72094945	     -2.65996872	    -17.17054563	     26.92390052	      0.00000000	     -8.13247802	      0.46991071	     -2.41477078	      0.00000000	      0.00000000
     11.26500000	      6.46014185	    -41.70420761	      8.82059349	     -0.08684311	      0.87761603	     -1.19937147	     73.90683170	    -17.00143539	    -13.98369912	     36.81000169	      0.00000000	      8.99579331	      0.64245573	      2.27215544	      0.00000000	      0.00000000	     68.49396380	     -2.36187420	    -16.91526129	     26.91790715	      0.00000000	     -7.90348012	      0.46980611	     -2.54528699	      0.00000000	      0.00000000
     11.27000000	      6.64933834	    -41.59303666	      8.72068416	     -0.08686005	      0.87807868	     -1.19964795	     73.56892464	    -17.11275855	    -14.40896907	     36.57122467	      0.00000000	      9.04119505	      0.63828828	      2.21986640	      0.00000000	      0.00000000	     68.26747893	     -2.21593374	    -16.61059267	     26.59475977	      0.00000000	     -7.87543572	      0.46416612	     -2.67353237	      0.00000000	      0.00000000
     11.27500000	      5.81983958	    -41.58847359	      8.70559931	     -0.08737363	      0.87832405	     -1.19968144	     73.66600437	    -16.59133839	    -13.61114027	     36.32644626	      0.00000000	      8.98156643	      0.63401609	      1.97509272	      0.00000000	      0.00000000	     68.04298963	     -2.67185037	    -17.76478782	     26.52731731	      0.00000000	     -8.15972248	      0.46298903	     -2.65639482	      0.00000000	      0.00000000
